<svg xmlns="http://www.w3.org/2000/svg" width="500" height="800" viewBox="0 0 500 800"><rect width="100%" height="100%" fill="#DDDDDD"/><path fill="#999999" d="m114.45 383.53-1.68 9.94q1.58-.33 3.04-.48 1.45-.15 2.8-.15 3.76 0 6.63 1.12t4.82 3.1 2.94 4.64.99 5.73q0 3.79-1.34 6.93-1.33 3.13-3.71 5.36t-5.63 3.45-7.08 1.22q-2.24 0-4.25-.46-2.02-.47-3.78-1.24-1.77-.78-3.27-1.78-1.5-1.01-2.69-2.13l2.51-3.47q.79-1.12 2.08-1.12.82 0 1.68.53t1.97 1.15q1.1.63 2.6 1.16t3.62.53q2.24 0 3.96-.73 1.71-.73 2.85-2.03t1.72-3.1q.57-1.8.57-3.91 0-3.89-2.26-6.09-2.26-2.19-6.68-2.19-3.4 0-6.96 1.25l-5.08-1.45 3.96-23.17h23.56v3.47q0 1.75-1.09 2.84-1.09 1.08-3.7 1.08zM174.28 400q0 6.24-1.33 10.84-1.34 4.6-3.7 7.61-2.36 3-5.58 4.47t-6.94 1.47q-3.73 0-6.92-1.47-3.18-1.47-5.53-4.47-2.34-3.01-3.66-7.61T139.3 400q0-6.27 1.32-10.86 1.32-4.58 3.66-7.59 2.35-3 5.53-4.47 3.19-1.47 6.92-1.47 3.72 0 6.94 1.47t5.58 4.47q2.36 3.01 3.7 7.59 1.33 4.59 1.33 10.86m-8.41 0q0-5.18-.76-8.58t-2.03-5.41-2.92-2.82-3.43-.81q-1.75 0-3.39.81-1.63.81-2.88 2.82-1.26 2.01-2 5.41t-.74 8.58.74 8.58 2 5.41q1.25 2.02 2.88 2.82 1.64.81 3.39.81 1.78 0 3.43-.81 1.65-.8 2.92-2.82 1.27-2.01 2.03-5.41t.76-8.58m46.69 0q0 6.24-1.33 10.84-1.34 4.6-3.7 7.61-2.36 3-5.58 4.47t-6.94 1.47q-3.73 0-6.92-1.47-3.18-1.47-5.53-4.47-2.34-3.01-3.66-7.61T177.58 400q0-6.27 1.32-10.86 1.32-4.58 3.66-7.59 2.35-3 5.53-4.47 3.19-1.47 6.92-1.47 3.72 0 6.94 1.47t5.58 4.47q2.36 3.01 3.7 7.59 1.33 4.59 1.33 10.86m-8.41 0q0-5.18-.76-8.58t-2.03-5.41-2.92-2.82-3.43-.81q-1.75 0-3.39.81-1.63.81-2.88 2.82-1.26 2.01-2 5.41T186 400t.74 8.58 2 5.41q1.25 2.02 2.88 2.82 1.64.81 3.39.81 1.78 0 3.43-.81 1.65-.8 2.92-2.82 1.27-2.01 2.03-5.41t.76-8.58m60.82 12.94-4.33 4.25-11.18-11.18-11.29 11.25-4.32-4.26 11.28-11.32-10.76-10.75 4.29-4.29 10.76 10.75 10.69-10.69 4.36 4.29-10.72 10.73zm38.74 5.08q2.01 0 3.53-.58t2.56-1.6 1.56-2.44q.53-1.42.53-3.07 0-3.93-2.18-5.94-2.17-2.01-6-2.01t-6.01 2.01-2.18 5.94q0 1.65.53 3.07t1.57 2.44 2.56 1.6q1.51.58 3.53.58m0-36.27q-1.82 0-3.14.56t-2.19 1.5q-.88.94-1.29 2.17-.41 1.22-.41 2.57 0 1.42.35 2.76.34 1.33 1.17 2.37.82 1.04 2.17 1.67 1.36.62 3.34.62t3.33-.62q1.35-.63 2.18-1.67.82-1.04 1.17-2.37.35-1.34.35-2.76 0-1.35-.43-2.57-.43-1.23-1.29-2.17t-2.18-1.5-3.13-.56m8.05 17.23q4.36 1.42 6.43 4.34 2.08 2.92 2.08 7.14 0 3.17-1.2 5.74-1.21 2.58-3.38 4.39-2.18 1.82-5.23 2.81-3.06.99-6.75.99-3.7 0-6.75-.99t-5.23-2.81q-2.18-1.81-3.38-4.39-1.21-2.57-1.21-5.74 0-4.22 2.08-7.14t6.44-4.34q-3.47-1.45-5.2-4.13-1.73-2.67-1.73-6.43 0-2.71 1.1-5.05 1.11-2.34 3.09-4.08 1.98-1.73 4.73-2.7 2.76-.98 6.06-.98t6.05.98q2.76.97 4.74 2.7 1.98 1.74 3.08 4.08 1.11 2.34 1.11 5.05 0 3.76-1.73 6.43-1.74 2.68-5.2 4.13m47.72 1.02q0 6.24-1.34 10.84t-3.69 7.61q-2.36 3-5.58 4.47t-6.95 1.47-6.91-1.47q-3.19-1.47-5.53-4.47-2.34-3.01-3.66-7.61T324.5 400q0-6.27 1.32-10.86 1.32-4.58 3.66-7.59 2.34-3 5.53-4.47 3.18-1.47 6.91-1.47t6.95 1.47 5.58 4.47q2.35 3.01 3.69 7.59 1.34 4.59 1.34 10.86m-8.42 0q0-5.18-.76-8.58t-2.03-5.41-2.92-2.82-3.43-.81q-1.75 0-3.38.81t-2.89 2.82q-1.25 2.01-1.99 5.41-.75 3.4-.75 8.58t.75 8.58q.74 3.4 1.99 5.41 1.26 2.02 2.89 2.82 1.63.81 3.38.81 1.78 0 3.43-.81 1.65-.8 2.92-2.82 1.27-2.01 2.03-5.41t.76-8.58m46.7 0q0 6.24-1.34 10.84t-3.69 7.61q-2.36 3-5.58 4.47t-6.95 1.47-6.91-1.47q-3.19-1.47-5.53-4.47-2.34-3.01-3.66-7.61T362.78 400q0-6.27 1.32-10.86 1.32-4.58 3.66-7.59 2.34-3 5.53-4.47 3.18-1.47 6.91-1.47t6.95 1.47 5.58 4.47q2.35 3.01 3.69 7.59 1.34 4.59 1.34 10.86m-8.42 0q0-5.18-.76-8.58t-2.03-5.41-2.92-2.82-3.43-.81q-1.75 0-3.38.81t-2.89 2.82q-1.25 2.01-1.99 5.41-.75 3.4-.75 8.58t.75 8.58q.74 3.4 1.99 5.41 1.26 2.02 2.89 2.82 1.63.81 3.38.81 1.78 0 3.43-.81 1.65-.8 2.92-2.82 1.27-2.01 2.03-5.41t.76-8.58"/></svg>