<svg width="1920" height="695" viewBox="0 0 1920 695" fill="none" xmlns="http://www.w3.org/2000/svg">
<path d="M-409.989 684.8C-251.717 683.369 -93.428 699.441 62.7323 715.366C223.968 731.821 386.055 748.027 548.683 757.037C697.475 765.315 842.683 756.924 990.738 745.989C1199.78 730.548 1408.32 712.359 1617.12 695.51C1853.62 676.364 2092.8 652.431 2331.18 648.996M-395.303 658.175C-240.813 655.337 -86.175 668.942 66.2197 685.081C104.384 689.125 142.384 694.091 180.598 697.943C229.96 702.876 280.191 703.079 330.045 708.079C404.687 715.614 479.264 723.621 554.348 729.117C704.139 740.087 848.528 729.793 997.468 717.754C1207.26 700.792 1416.44 680.813 1626.17 663.086C1858.36 643.467 2092.19 620.018 2326.11 612.911M-382.713 629.152C-236.163 625.3 -89.6459 636.247 54.89 652.296C95.248 656.801 135.95 663.885 176.488 667.163C205.664 669.528 234.889 665.034 264.113 666.521C287.853 667.726 311.921 671.668 335.383 674.506C411.989 683.786 488.317 694.407 565.35 701.941C713.913 716.47 854.847 704.622 1002.72 691.726C1209.11 673.706 1414.64 651.812 1620.95 633.578C1852.49 613.114 2084.83 589.835 2317.82 578.662M-371.89 598.045C-231.087 593.54 -90.7429 602.606 47.8989 619.365C84.8351 623.87 121.411 629.862 158.364 634.13C198.542 638.781 237.672 627.282 277.719 630.988C298.414 632.902 319.043 636.45 339.443 639.468C415.28 650.731 490.413 664.144 566.594 674.269C631.707 682.93 698.13 689.474 764.619 687.435C845.449 684.969 926.853 674.945 1006.93 667.512C1214.01 648.287 1419.81 623.712 1626.81 604.645C1853.17 583.798 2079.72 561.42 2307.07 546.08M-362.493 565.147C-227.616 560.496 -93.9846 568.042 38.4848 585.837C74.1931 590.634 110.802 599.228 146.756 602.145C192.238 605.839 236.542 590.679 281.714 593.315C304.537 594.644 328.932 601.041 350.969 605.062C423.106 618.205 494.162 634.04 566.479 646.733C629.612 657.837 694.61 667.005 760.1 666.059C843.256 664.933 927.803 652.814 1009.99 644.784C1115.45 634.49 1221.52 625.773 1326.6 613.779C1424.33 602.618 1520.63 587.875 1618.87 578.403C1843.86 556.825 2068.85 535.133 2294.16 515.176M-354.175 530.774C-227.551 526.517 -103.153 532.61 20.8681 551.047C55.8723 556.25 91.2695 565.294 126.585 568.887C182.251 574.518 237.328 553.119 293.485 556.982C313.132 558.345 334.417 564.979 353.212 569.044C424.662 584.643 494.375 603.631 565.595 619.556C626.615 633.206 690.026 645.212 754.648 645.584C836.035 646.057 919.78 632.621 1000.01 624.467C1108.98 613.396 1218.74 604.194 1327.24 591.254C1421.87 579.912 1514.35 563.098 1609.58 553.66C1832.89 531.371 2056.67 510.716 2279.38 485.792M-346.611 495.23C-226.176 491.851 -109.211 497.28 8.21215 516.978C42.7907 522.789 77.5985 532.475 112.488 536.845C174.851 544.729 235.887 513.036 297.382 520.796C318.83 523.51 339.476 529.277 359.876 534.491C430.998 552.691 499.549 575.16 570.098 594.306C627.205 609.803 687.03 624.028 748.901 625.784C832.302 628.161 920.632 612.27 1002.58 603.609C1114.61 591.806 1228.4 583.167 1339.6 568.064C1428.98 555.935 1515.69 538.861 1606.06 529.457C1825.05 506.752 2045.93 487.594 2263.19 457.771M-339.473 458.83C-222.033 456.791 -109.784 462.58 3.79157 484.463C36.5364 490.77 74.4059 504.736 107.593 506.988C135.622 508.959 170.234 501.841 196.184 497.663C222.38 493.428 273.134 481.039 301.361 483.821C321.122 485.758 343.078 494.352 361.398 499.668C432.258 520.233 499.565 545.844 569.148 568.312C624.241 586.062 682.658 603.226 744.039 606.334C827.865 610.591 920.091 592.29 1002.25 583.37C1112.93 571.353 1225.21 562.501 1335.08 547.488C1426.65 534.975 1514.26 515.784 1606.87 505.817C1819.4 482.943 2036.35 465.599 2245.77 431.124M-332.433 421.867C-216.008 421.754 -106.493 428.759 4.95405 453.334C37.0113 460.395 68.6428 470.982 101.093 476.805C122.721 480.69 150.996 474.361 173.017 471.174C211.656 465.542 271.759 444.639 311.954 451.295C332.026 454.674 352.655 462.963 371.255 469.034C439.118 491.198 502.905 518.589 568.952 543.062C622.244 562.827 679.449 582.751 740.6 586.918C772.445 589.08 803.405 584.969 834.791 581.647C890.179 575.779 945.485 569.562 1000.81 563.379C1112.45 550.923 1226.29 542.24 1336.97 526.213C1423.74 513.701 1506.31 494.34 1594.24 484.542C1716.5 470.869 1838.8 457.332 1960.82 442.702C2049.89 432.025 2140.66 422.587 2227.81 405.727M-325.131 384.644C-208.624 385.151 -99.3056 396.627 10.9955 422.993C46.098 431.383 81.7735 445.045 118.137 449.876C177.077 457.692 239.063 418.589 298.856 421.562C323.087 422.779 343.307 430.708 365.262 437.938C436.089 461.285 504.608 487.786 575.468 511.065C632.772 529.873 693.988 548.772 757.89 553.119C833.023 558.221 916.85 542.15 991.328 535.752C1100.89 526.348 1212.03 518.859 1320.27 503.553C1411.84 490.601 1500.97 473.302 1593.39 462.637C1711.06 449.122 1828.73 435.415 1946.09 420.549C2034.06 409.399 2123.76 399.319 2209.47 381.333M-317.272 347.478C-196.771 348.109 -83.3098 365.498 29.4472 394.138C61.7173 402.337 103.451 420.875 137.505 423.657C159.608 425.459 190.716 415.357 208.971 410.458C227.226 405.559 269.549 390.816 291.242 392.077C311.102 393.204 336.872 404.522 355.504 409.613C435.582 431.496 515.856 453.334 598.127 471.05C664.026 485.24 733.036 498.271 802.521 499.352C868.96 500.377 936.431 493.721 1003.26 493.631C1197.46 493.361 1383.1 466.038 1573.79 443.603C1692.23 429.66 1810.62 415.447 1928.57 399.68C2016.31 387.955 2106.11 377.29 2191.2 358.008M-308.545 310.672C-184.983 311.213 -68.46 335.698 45.2303 367.232C77.6968 376.242 111.408 390.23 145.102 396.357C189.488 404.444 234.332 371.873 278.849 370.172C305.405 369.17 326.214 377.65 351.035 384.588C433.535 407.608 517.641 428.342 603.432 444.786C672.36 457.996 744.104 469.766 815.995 470.689C879.16 471.534 941.015 466.184 1004.67 468.64C1195.93 476.107 1385.13 445.608 1572.8 422.948C1686.53 409.208 1800.16 394.904 1913.34 379.137C2000.12 367.041 2089.71 356.038 2173.35 335.484M-298.591 274.531C-169.789 275.173 -47.3231 308.375 68.8557 343.604C101.191 353.413 136.916 369.834 171.445 374.778C214.227 380.894 254.945 347.501 298.201 350.372C321.761 351.938 344.404 361.849 366.048 368.392C443.621 391.706 522.7 413.037 603.629 430.201C670.346 444.358 740.158 457.141 810.331 458.695C872.398 460.08 935.498 453.356 997.942 453.345C1188.75 453.345 1380.88 428.421 1568.08 404.77C1682.46 390.317 1796.58 374.775 1910.46 358.144C1992.45 346.138 2078.08 335.405 2156.18 313.848M-287.048 239.37C-204.924 240.158 -124.961 257.142 -48.9604 277.403C-5.11499 289.105 37.8954 302.282 80.4964 315.966C123.982 329.92 183.741 361.398 232.04 354.551C258.288 344.849 286.682 338.19 316.079 334.842C328.162 339.009 340.283 343.138 352.443 347.23C377.056 355.489 401.827 363.497 426.757 371.253C475.531 386.446 524.992 400.727 575.255 413.363C654.252 433.219 742.532 454.066 827.947 451.138C910.481 448.288 994.946 440.461 1077.27 434.424C1137.12 430.032 1196.16 422.373 1255.73 417.024C1333.53 410.041 1411.85 405.874 1489.41 397.641C1614.5 384.363 1738.27 363.302 1861.95 345.023C1954.06 331.418 2054.01 320.167 2140.28 292.911M-273.607 205.504C-185.769 206.979 -100.059 228.839 -20.1449 252.232C26.6311 265.927 72.5394 281.018 118.055 296.594C142.002 304.778 165.851 313.098 189.602 321.552C221.234 332.747 237.819 343.885 274.379 336.587C293.698 327.337 314.54 323.958 336.905 326.451C348.824 330.843 360.771 335.187 372.745 339.482C396.692 348.086 420.798 356.481 445.062 364.665C491.625 380.331 538.826 395.163 587.043 408.262C659.082 427.824 739.962 448.333 818.681 445.619C898.267 442.871 981.112 427.396 1059.67 418.071C1119.39 410.976 1178.86 402.304 1239.12 397.596C1324.49 390.94 1410.49 388.507 1495.71 380.894C1615.94 370.149 1733.95 345.597 1852.11 327.375C1942.16 313.477 2043.34 302.237 2126 272.481M-257.938 173.214C-164.976 175.174 -73.912 201.911 9.39096 228.13C58.8521 243.706 107.396 260.656 155.564 278.045C180.352 287.01 205.063 296.088 229.699 305.278C260.331 316.664 276.606 327.251 311.921 320.944C349.577 314.186 360.727 321.146 393.603 333.614C416.95 342.451 440.417 351.12 464.004 359.619C503.216 373.652 542.903 387.111 583.425 399.252C653.335 420.177 734.379 443.4 812.377 439.932C896.057 436.226 982.65 413.026 1064.07 399.95C1209.13 376.648 1354.06 375.758 1501.61 364.766C1618.03 356.094 1730.58 328.647 1844.27 310.346C1932.09 296.2 2034.97 284.859 2113.59 252.581M-239.748 142.817C-142.725 144.619 -46.7992 176.503 38.714 205.233C90.4509 222.623 141.205 241.375 191.567 260.566C210.657 267.826 229.688 275.154 248.658 282.55C270.793 291.155 298.086 306.899 324.184 308.454C337.686 305.559 352.162 305.626 365.606 308.645C377.482 313.368 389.368 318.064 401.265 322.734C424.569 331.88 447.976 340.89 471.487 349.764C515.103 366.117 559.276 381.874 604.726 395.704C668.234 415.019 740.928 435.528 811.804 431.552C891.62 427.047 971.55 401.594 1048.24 386.638C1109.36 374.722 1170.69 364.586 1234.1 360.734C1332.33 354.776 1431.26 355.61 1529.16 347.579C1633.73 339.009 1733.82 311.269 1835.77 294.218C1922.07 279.779 2028.55 268.168 2103.56 233.119M-218.661 114.616C-121.097 116.057 -23.976 151.545 60.5712 181.717C106.119 197.969 150.865 215.257 195.284 232.894C242.649 251.702 293.911 280.849 346.45 291.571C397.778 302.034 443.228 324.311 490.397 341.982C528.414 356.229 566.889 369.98 606.346 382.245C671.394 402.45 746.069 423.601 819.024 418.657C904.161 412.879 988.708 386.401 1070.73 370.881C1219.72 342.658 1372.85 341.667 1525.48 328.309C1629.67 319.176 1730.81 295.423 1832.38 277.685C1916.6 262.987 2025.03 250.812 2096.17 213.804M-194.348 88.9372C-96.6697 90.5027 0.255152 128.513 83.5909 159.958C180.319 196.471 271.072 240.845 368.471 276.209C455.032 307.62 536.698 344.584 626.501 371.94C688.864 390.94 760.558 410.289 830.141 405.209C917.996 398.779 1006.67 378.731 1092.79 365.633C1235.67 343.908 1376.88 319.772 1518.7 294.927C1622.17 276.795 1728.48 280.129 1831.32 261.365C1914.05 246.274 2023.63 233.209 2091.82 194.703M-166.547 66.142C-74.485 68.5071 15.1868 103.545 93.7745 133.717C191.485 171.311 283.908 214.536 379.441 254.529C464.577 290.186 549.878 326.902 640.27 356.128C702.06 376.096 773.853 396.875 843.812 391.863C935.4 385.309 1028.59 366.782 1118.77 354.314C1174.86 346.555 1232.05 340.248 1286.82 328.647C1371.4 310.74 1452.18 285.118 1536.87 267.548C1588.51 256.849 1637.71 253.808 1691.4 254.901C1748.26 256.027 1796.77 251.792 1851.7 241.003C1928.91 225.844 2028.15 212.317 2090.97 175.681M-136.831 48.246C-45.424 51.2981 43.6421 80.5805 123.949 108.646C175.342 126.61 225.458 146.274 274.903 166.659C320.746 185.592 364.951 208.556 414.069 223.174C507.85 251.083 586.732 297.676 674.177 333.85C727.945 356.105 789.75 379.824 854.585 376.974C940.508 373.19 1030.02 353.267 1114.19 340.833C1178.04 331.384 1242.38 322.903 1304.75 309.422C1373.9 294.477 1441.41 276.108 1510.78 261.624C1620.03 238.807 1734.44 242.219 1844 220.122C1925.96 203.6 2020.83 189.105 2092.46 155.926M-105.822 35.542C-15.2823 36.3979 74.6351 58.3033 157.038 82.4388C201.571 95.4807 245.121 110.088 287.853 125.72C332.943 142.22 375.97 163.742 422.992 177.449C470.652 191.335 513.531 194.016 554.773 216.18C574.944 227.026 594.591 238.322 613.992 249.821C644.216 267.751 673.621 286.334 704.123 304.016C748.033 329.469 801.064 360.756 861.904 360.43C899.888 360.216 940.36 351.037 977.362 345.631C1024.3 338.761 1071.12 331.628 1117.82 324.232C1239.7 305.019 1358.2 280.196 1478.54 257.063C1594.37 234.786 1712.76 220.528 1828.34 197.552C1917.3 179.87 2011.54 163.709 2094.98 135.507M-73.2898 27.3541C16.8732 27.9623 106.709 43.6734 191.01 64.7229C235.061 75.7818 278.182 88.5206 320.173 102.88C373.039 120.9 420.536 143.143 477.348 154.811C528.102 165.229 558.473 167.493 596.572 189.838C613.157 199.557 629.006 209.817 644.412 220.415C671.984 239.359 697.59 259.541 724.064 279.183C761.05 306.652 806.107 342.917 865.326 343.379C902.982 343.649 944.11 334.211 980.735 328.737C1027.95 321.732 1075.02 314.186 1121.98 306.393C1235.18 287.618 1347.77 267.222 1460.14 246.229C1672.86 206.495 1890.73 169.07 2097.02 115.01M-39.0223 22.9843C48.1118 23.1758 135.279 36.8709 217.648 55.5891C262.67 65.8528 306.787 77.909 349.774 91.6965C394.733 106.09 436.548 125.799 482.227 138.875C530.542 152.705 574.011 153.877 614.14 177.798C627.827 185.952 640.974 194.523 653.794 203.319C680.661 221.744 705.465 241.487 730.957 260.757C766.567 287.72 809.741 323.737 867.356 325.133C902.294 325.978 940.623 317.374 974.546 312.362C1022.17 305.323 1069.51 297.484 1116.81 289.308C1234.8 268.911 1347.25 241.273 1463.28 216.653C1579.75 191.955 1700.4 179.735 1816.65 154.552C1910.07 134.28 2003.29 113.523 2097.43 94.8613M-2.74102 21.7455C90.8438 22.1396 184.445 36.5668 273.216 56.0959C320.398 66.4639 366.672 78.6926 411.809 92.7214C458.536 107.25 502.234 126.61 549.55 140.024C631.265 163.134 684.132 208.477 743.94 251.702C777.389 275.883 816.896 305.176 868.846 306.787C900.739 307.778 935.039 300.435 966.065 295.851C1013.38 288.846 1060.37 280.737 1107.16 272.2C1161.09 262.39 1216.61 253.572 1268.23 238.829C1334.84 219.807 1397.09 194.309 1463.8 175.478C1572.76 144.731 1692.84 155.059 1804.79 130.766C1899.75 110.156 1996.35 87.6871 2094.72 75.7038M35.7178 22.9505C223.461 26.1265 415.1 70.7596 575.714 136.363C640.483 162.819 691.467 199.974 744.677 236.081C779.059 259.406 819.679 287.325 871.203 288.53C944.47 290.242 1028.48 268.202 1097.93 254.811C1151.5 244.472 1207.3 235.383 1257.07 217.858C1327.18 193.194 1390.06 159.587 1461.32 136.386C1507.5 121.339 1554.36 117.983 1604.89 120.033C1663.29 122.409 1712.5 121.598 1768.61 109.784C1871.53 88.0813 1979.68 63.4278 2087.68 57.9767M76.6162 25.9013C252.014 29.6742 430.703 69.7347 580.527 132.027C641.236 157.267 692.334 189.624 745.627 221.417C782.497 243.413 824.018 267.593 875.264 268.877C947.302 270.724 1030.38 249.731 1098.34 235.991C1147.62 226.035 1197.93 216.372 1243.07 199.14C1306.12 175.084 1362.49 143.414 1426.44 120.472C1477.72 102.08 1525.61 98.1161 1582.39 99.5014C1638.37 100.853 1684.52 97.5643 1738.73 86.6735C1847.43 64.8468 1960.71 43.0089 2074.68 42.1417M120.167 29.8882C287.002 33.2669 443.784 71.1876 586.454 129.336C645.067 153.212 697.786 181.65 753.24 208.59C791.027 226.925 832.679 244.629 880.356 245.339C948.432 246.465 1023.65 231.599 1088.5 219.199C1136.26 210.076 1184.21 200.053 1227.34 182.934C1279.24 162.335 1326.16 136.296 1378.32 115.967C1429.47 96.0325 1480.8 89.6805 1538.77 86.0991C1595.27 82.8302 1651.19 75.8648 1705.77 65.2973C1818.74 43.482 1936.62 24.516 2054.62 28.7732M166.632 34.2467C322.17 36.3641 455.982 70.4893 589.385 123.153C678.893 158.494 780.778 219.762 889.59 220.719C954.261 221.294 1021.81 213.522 1084.29 202.823C1126.24 195.649 1168.51 186.752 1206.27 172.054C1250.47 154.834 1289.9 132.275 1333.97 114.875C1429.88 77.0666 1549.5 71.075 1654.59 50.3746C1774.99 26.6446 1900.83 9.39052 2026.39 18.3554M216.224 38.2562C287.902 38.763 358.664 43.5045 427.232 58.7764C489.447 72.6292 545.948 94.5347 602.532 116.665C696.755 153.527 794.253 196.989 906.24 198.408C966.278 199.163 1026.99 197.485 1085.78 188.576C1169.28 175.94 1225.13 143.864 1297.1 115.122C1346.22 95.492 1401.21 83.3736 1455.32 72.0097C1514.8 59.531 1573.92 45.7795 1633.78 34.1792C1749.75 11.6543 1868.51 -0.858289 1988.49 11.429M1865.35 1.04506C1981.47 10.3366 2054.54 52.9087 2057.06 134.404C2058.53 182.145 2057.6 228.918 2082.11 274.216C2111.92 329.289 2158.93 379.058 2192.46 433.016C2243.21 514.647 2267.3 599.352 2266.58 688.156M1790.2 1C1903.89 14.7627 1993.5 65.9731 2004.04 146.928C2010.05 193.036 2008.55 242.174 2029.16 286.582C2054.16 340.507 2098.45 389.07 2128 441.745C2172.98 521.933 2190.81 605.264 2187.86 691.05M1714.58 7.31825C1822.34 25.0341 1925.02 83.1371 1939.32 161.253C1944.24 187.855 1952.68 211.293 1951.6 238.232C1950.98 258.931 1954.72 279.583 1962.7 299.545C1983.15 352.332 2024.61 399.916 2050.61 451.363C2090.57 530.403 2103 612.292 2098.55 695.634M1639.04 18.9749C1700.27 32.0956 1753.22 58.3935 1797.75 89.8044C1837.6 117.893 1855.45 141.983 1864.88 179.656C1871.08 204.636 1882.46 224.864 1879.16 250.317C1876.43 271.259 1878.33 292.364 1884.8 312.914C1900.01 361.691 1935.76 406.155 1958.48 453.311C1997.27 533.759 2005.96 617.326 2000.44 701.57M1564.02 35.0351C1623.55 49.9241 1678.79 80.6255 1722.14 111.71C1759.11 138.21 1772.05 158.764 1780.68 193.926C1787.22 220.426 1802.11 239.404 1796.54 266.479C1792.49 286.485 1792.83 306.797 1797.57 326.733C1808.77 375.398 1842.79 420.211 1863.06 467.175C1896.81 545.81 1901.24 627.305 1895.07 708.744M1478.7 54.9359C1534.37 72.8995 1596.13 81.1436 1640.2 113.084C1661.48 128.457 1674.71 146.432 1682.77 166.907C1688.47 181.424 1686.42 197.057 1692.8 211.033C1698.55 223.636 1715.73 231.475 1722.28 243.469C1728.82 255.261 1724.7 264.035 1723.09 276.288C1720.29 297.518 1719.82 319.018 1717.4 340.304C1711.68 391.886 1743.59 435.393 1761.6 484.463C1789.65 560.541 1791.38 638.635 1784.1 716.56M1387.31 77.5959C1441.8 90.3901 1513.76 77.7987 1560.53 106.495C1590.66 124.977 1593.8 159.102 1595.83 184.736C1596.86 197.597 1589.9 216.62 1600.64 227.668C1610.3 237.624 1631.36 237.241 1643.75 244.156C1664.71 255.881 1655.79 265.499 1655.95 283.654C1656.21 310.188 1655.54 329.143 1640.59 353.965C1629.13 373.044 1617.1 392.336 1620.78 413.476C1625.2 438.974 1642.82 465.058 1651.42 490.218C1677.79 567.445 1678.25 646.383 1669.65 725.119M1307.61 101.033C1360 115.753 1442.91 82.6528 1486.35 119.458C1505.85 135.98 1503.7 171.086 1503.2 190.108C1502.95 199.377 1490.77 234.448 1501.69 243.942C1515.75 256.162 1545.17 247.546 1561.66 255.205C1579.92 263.708 1570.27 280.917 1570.96 296.133C1572.3 324.976 1571.73 343.333 1549.5 367.75C1531.77 387.223 1510.2 405.908 1514.35 430.28C1518.6 455.17 1534.76 480.499 1542.03 505.299C1564.17 580.757 1562.46 657.612 1553.1 734.039M1253.09 123.49C1269.18 132.365 1295.76 130.394 1315.14 133.075C1342.98 136.938 1373.62 141.499 1389.15 159.958C1404.03 177.652 1402.95 204.22 1402.98 223.569C1402.98 237.084 1394.99 254.754 1407.66 266.107C1416.72 274.216 1441.03 272.605 1448.77 280.816C1457.93 290.513 1448.94 300.626 1444.75 311.461C1436.05 333.862 1428.37 355.902 1418.04 377.988C1408.86 397.619 1399.26 419.49 1404.11 440.36C1410.84 469.304 1443.4 489.633 1450.17 519.737C1466.54 593.236 1447.17 669.922 1436.27 743.128M1210.19 144.754C1208.03 161.377 1266.48 189.027 1278.34 203.082C1300.34 229.189 1293.97 253.583 1303.94 281.063C1311.82 302.789 1340.34 315.267 1306.09 332.961C1291.35 340.585 1277.14 342.387 1270.46 354.821C1265.88 363.369 1269.69 376.524 1271.13 385.579C1275 409.4 1282.87 432.832 1294.58 455.406C1311.62 488.067 1367.19 497.077 1370.55 535.088C1376.92 606.987 1336.16 681.613 1320.86 752.104M1157.74 164.711C1144.33 182.945 1173.6 210.752 1184.51 226.654C1202.11 252.333 1205.46 273.022 1209.28 300.435C1212.55 324.086 1228.35 345.62 1184.29 352.242C1163.78 355.317 1152.91 354.303 1146.93 369.676C1143.77 377.808 1149.47 388.823 1152.43 396.515C1162.01 421.117 1174.42 445.156 1189.55 468.403C1209.52 498.35 1269.32 508.204 1272 544.346C1274.24 574.585 1262.68 604.6 1251.35 633.533C1234.84 675.767 1218.9 717.405 1208.59 760.641M1099.19 177.528C1074.63 193.757 1095.7 225.461 1103.82 243.74C1114.83 268.517 1116.92 290.017 1118.39 315.481C1119.79 338.524 1128.92 357.637 1090.35 366.354C1056.18 374.069 1051.79 385.872 1061.66 409.072C1070.75 430.392 1085.68 451.532 1096.54 472.48C1111.42 501.165 1145.41 526.269 1147.98 557.489C1153.76 627.823 1118.51 699.959 1101.17 768.57M1043.33 182.877C1008.63 200.019 1021.57 238.885 1026.79 262.987C1031.46 283.922 1033.68 305.08 1033.45 326.26C1033.14 348.165 1035.86 363.516 1009.99 378.517C986.04 392.415 969.847 395.794 982.536 420.357C991.377 437.465 1010.01 451.205 1015.92 469.327C1026.89 503.012 1012.86 540.28 1018.08 574.98C1028.21 642.25 1015.12 709.172 1000.33 775.654M993.014 183.542C929.882 221.71 962.038 291.447 956.078 342.827C953.671 363.471 946.991 377.11 927.688 392.764C913.166 404.545 900.936 415.019 911.316 430.685C919.502 443.175 938.134 450.327 942.931 464.675C949.251 483.461 927.492 505.941 917.226 523.048C902.819 547.037 890.768 562.996 897.203 588.179C913.919 653.704 920.795 715.186 907.861 781.6M951.166 182.28C880.012 220.573 898.021 291.819 888.951 347.095C884.94 371.704 871.793 384.824 854.176 405.468C845.057 416.156 833.367 428.579 843.387 440.382C852.948 451.644 871.22 453.041 874.347 468.628C879.488 494.16 832.057 528.556 816.388 549.38C802.767 567.456 795.988 577.885 800.54 598.158C805.812 621.809 817.109 644.841 823.903 668.323C835.364 708.136 834.218 746.034 825.279 786.139M916.588 180.985C841.471 221.665 859.481 289.634 843.829 347.467C837.149 372.053 820.252 388.845 801.571 409.41C792.485 419.434 780.893 430.877 787.36 442.747C793.32 453.683 809.266 457.017 810.936 471.095C813.982 496.92 770.627 528.849 754.697 550.315C741.484 568.121 734.624 579.462 737.244 599.554C740.437 624.039 749.54 648.118 754.501 672.445C762.588 712.066 760.002 749.525 749.016 788.809M883.352 178.845C805.55 218.613 827.915 279.43 803.241 335.743C791.994 361.421 767.599 382.853 746.02 404.579C737.031 413.589 724.326 424.682 725.849 436.249C727.208 446.486 737.866 454.753 737.702 465.993C737.359 491.649 705.4 518.172 690.648 540.708C679.187 558.232 673.686 570.903 674.472 590.263C677.255 658.693 692.646 720.783 670.199 789M850.509 175.41C770.775 210.696 795.366 266.4 760.067 317.948C742.221 343.998 713.226 366.996 688.029 389.836C677.534 399.319 662.864 411.077 657.854 422.813C653.712 432.51 657.052 443.288 655.955 453.221C651.158 496.345 609.539 531.495 609.408 576.286C609.195 647.836 615.302 716.808 589.237 786.894M817.338 170.185C776.833 184.544 758.397 201.246 747.264 230.765C738.963 252.93 733.478 273.991 714.208 293.306C675.356 332.24 623.406 364.845 584.718 403.678C573.356 415.098 571.178 426.709 568.018 440.348C560.029 474.811 545.097 508.103 542.265 543.107C535.486 624.106 538.401 704.07 506.442 782.997M783.12 162.864C748.459 171.874 724.997 180.884 709.935 204.344C698.671 221.89 692.105 238.886 675.209 254.653C639.566 287.776 594.1 316.754 554.609 347.85C539.874 359.506 524.992 369.857 508.767 380.432C456.784 414.388 476.497 480.792 471.274 525.154C461.254 610.163 457.865 695.341 422.517 777.704M747.1 152.885C717.27 158.235 686.522 162.301 666.564 179.454C649.619 193.993 638.273 210.2 619.461 224.233C574.78 257.547 526.138 288.181 481.932 321.822C466.599 333.563 449.808 344.363 431.751 354.1C410.025 365.858 393.603 380.06 389.739 399.736C387.054 413.352 393.488 427.43 396.943 440.652C402.722 462.817 400.528 481.726 397.319 503.97C384.385 593.653 376.494 684.394 337.986 771.059M708.576 139.843C681.84 143.121 641.302 142.58 617.365 153.122C597.292 161.952 580.576 178.665 563.336 189.646C511.403 222.859 457.865 254.698 410.45 291.008C393.825 303.923 375.388 315.678 355.406 326.102C331.862 338.401 312.33 352.771 307.173 373.798C303.751 387.82 309.023 398.215 315.67 411.111C327.016 433.152 325.805 449.617 322.072 472.615C306.207 570.035 295.958 669.505 253.308 763.536M602.073 98.5103C582.23 101.889 569.492 102.463 563.303 115.787C560.782 121.227 568.641 122.871 563.303 127.95C557.786 133.244 485.01 128.975 474.892 129.674C444.947 131.735 426.43 134.055 409.894 151.297C391.72 170.185 384.86 195.334 373.219 216.282C362.937 234.786 349.758 247.67 333.582 263.516C307.042 289.533 290.85 310.019 251.31 328.478C211.361 347.106 164.012 362.772 142.499 394.307C131.284 410.683 123.638 427.622 111.211 444.065C97.5893 462.085 95.2644 478.843 98.1132 498.89C110.818 586.039 200.556 665.935 168.973 755.539M562.894 84.3759C541.151 86.8875 531.934 90.0072 514.612 96.7646C509.798 98.6342 510.502 103.353 504.019 105.527C486.222 111.473 440.166 104.209 420.519 104.795C390.902 105.662 359.466 105.459 341.358 123.704C321.269 143.977 311.888 169.295 296.973 191.347C286.118 207.441 271.055 219.751 256.746 234.223C230.976 260.307 213.097 281.244 175.882 301.066C138.226 321.101 93.4143 339.515 72.4412 370.206C61.3244 386.48 55.3156 403.633 43.2983 419.952C29.6273 438.535 24.4864 454.077 26.0254 474.958C32.7544 567.051 118.481 653.839 85.7193 747.137M526.22 72.4039C495.112 74.465 466.951 84.2408 437.039 85.4233C386.923 87.3943 310.889 70.3655 273.315 100.369C252.505 117.003 241.47 139.72 226.473 158.855C214.456 174.217 199.066 187.011 184.74 201.235C157.758 228.04 138.291 252.772 102.878 275.421C63.9276 300.345 18.756 324.818 3.00572 361.342C-13.3667 399.116 -39.5626 429.502 -36.2881 470.194C-29.1825 559.843 38.4193 648.951 3.80796 738.871M490.446 62.5268C449.662 63.653 408.584 69.4081 367.882 67.7188C320.091 65.7253 245.285 54.8007 206.597 79.3078C183.103 94.1968 169.366 117.78 151.929 135.699C138.831 149.135 123.016 161.028 109.869 174.419C83.8527 200.931 63.7802 227.634 33.0327 252.13C-1.62773 279.689 -40.2994 307.677 -54.5925 343.806C-70.3101 383.473 -93.4771 419.558 -92.593 461.409C-90.6774 550.855 -36.8448 642.757 -76.0241 731.055M453.968 54.6431C403.705 54.5079 353.441 56.1072 303.342 52.9762C254.077 49.9016 184.33 40.8015 141.746 62.4479C118.317 74.3636 102.894 93.2282 85.3591 108.917C71.2951 121.52 55.1192 132.759 41.8575 145.813C14.0243 173.214 -6.31018 203.904 -33.8159 231.632C-98.3888 296.718 -141.219 375.792 -144.33 455.406C-147.801 544.188 -108.671 637.858 -153.367 723.847M415.198 48.674C353.982 47.2211 293.338 44.9461 232.416 40.6664C184.363 37.2876 123.016 31.4312 79.2194 48.5501C40.0729 63.8332 -2.13524 100.414 -27.2997 125.754C-54.8217 153.471 -74.3213 185.062 -97.3737 214.604C-153.924 287.066 -184.819 369.8 -192.825 451.949C-201.404 539.796 -177.402 634.4 -227.682 717.742M372.548 44.5069C303.784 41.9165 235.74 36.5443 167.254 31.6451C119.774 28.2664 64.386 24.5836 19.7056 38.5941C-73.339 67.7863 -119.788 141.33 -157.379 201.438C-206.496 279.813 -227.567 365.734 -240.109 450.338C-253.026 537.442 -243.219 631.911 -298.395 712.956M324.429 42.0629C251.834 38.6841 180.27 31.4086 108.019 26.1378C59.4906 22.6014 6.65676 20.6304 -39.4808 33.5823C-134.539 60.2743 -181.184 130.822 -213.7 192.766C-256.399 274.081 -271.413 360.824 -287.196 446.171C-303.454 534.108 -305.402 629.332 -365.047 709.814M269.222 41.2633C335.595 41.6574 402.46 43.8424 466.428 57.087C519.032 67.9665 568.035 85.5134 615.891 103.759C722.443 144.382 811.182 176.874 933.517 181.695C988.332 183.857 1043.43 185.637 1097.52 177.674C1170.85 166.885 1219.87 135.823 1282.4 110.505C1378.31 71.6832 1494.04 49.5074 1599.69 26.9262C1711.16 3.08354 1824 -6.75981 1939.39 8.47829C1991.52 10.438 2053.29 15.3258 2081.83 49.8115C2100.64 72.4715 2098.43 101.146 2095.91 126.182C2091 175.557 2090.61 216.068 2119.39 262.458C2153.67 317.734 2201.97 368.483 2239.78 422.61C2298.49 506.481 2330.54 593.878 2333 687.131C2094.96 687.131 1855.06 710.962 1618.9 729.05C1406.89 745.302 1195.03 762.837 982.7 776.893C834.595 786.725 688.798 792.165 540.12 784.912C376.215 776.915 213.539 760.134 51.0752 743.691C-106.968 727.721 -266.894 709.059 -427 708.777C-367.028 630.019 -354.519 537.34 -337.901 450.62C-321.119 362.998 -307.088 273.416 -266.026 189.229C-235.688 127.049 -184.36 53.7871 -87.7303 30.4288C-43.9341 19.8646 3.3168 20.8557 48.8485 23.8065C122.525 28.5817 195.316 37.5917 269.222 41.2633Z" stroke="#212121" stroke-miterlimit="10"/>
</svg>
